<svg viewBox="0 0 64 64" xmlns="http://www.w3.org/2000/svg" role="img" aria-label="Tibeb">
  <rect width="64" height="64" rx="14" fill="#0b7a41"/>
  <path transform="translate(8.569 48.200) scale(0.04517 -0.04517)" d="M528.039794921875 -6.1600341796875Q514.1998291015625 6 505.9898376464844 24.08001708984375Q497.77984619140625 42.1600341796875 497.77984619140625 70.58001708984375Q497.77984619140625 93.29974365234375 498.5698547363281 123.5596923828125Q499.35986328125 153.81964111328125 499.85986328125 186.31964111328125Q500.35986328125 218.81964111328125 501.1498718261719 248.49957275390625Q501.93988037109375 278.17950439453125 501.93988037109375 299.1591796875Q501.93988037109375 333.37933349609375 489.9699401855469 346.119384765625Q478 358.85943603515625 446.8399658203125 358.85943603515625H403.5596923828125V655.8797607421875Q308.7205810546875 651.8196411132812 259.8509826660156 585.0800170898438Q210.98138427734375 518.3403930664062 210.98138427734375 389.160888671875V367.62066650390625Q210.98138427734375 327.4005126953125 224.5614013671875 313.740478515625Q238.14141845703125 300.0804443359375 265.78155517578125 300.0804443359375V248.320068359375L75.2794189453125 235.8399658203125Q64.5994873046875 250 59.209564208984375 272.8501281738281Q53.81964111328125 295.70025634765625 53.81964111328125 325.4403076171875V391.26080322265625Q53.81964111328125 495.4005126953125 96.7396240234375 568.1803588867188Q139.65960693359375 640.960205078125 220.68966674804688 679.5101623535156Q301.7197265625 718.0601196289062 415.8399658203125 718.0601196289062H561.3014526367188V679.7603759765625Q584.5216064453125 696.7603759765625 620.8116149902344 710.1202392578125Q657.1016235351562 723.4801025390625 706.04150390625 723.4801025390625Q785.5216064453125 723.4801025390625 835.3416748046875 696.64013671875Q885.1617431640625 669.8001708984375 908.9017944335938 623.1502990722656Q932.641845703125 576.5004272460938 932.641845703125 516.7807006835938Q932.641845703125 490.0804443359375 931.8518371582031 464.9703674316406Q931.0618286132812 439.86029052734375 929.9818115234375 416.3903503417969Q928.9017944335938 392.92041015625 928.9017944335938 371.14056396484375Q928.9017944335938 328.82049560546875 942.4818115234375 314.740478515625Q956.0618286132812 300.66046142578125 983.7019653320312 300.66046142578125V248.90008544921875L793.1998291015625 236.41998291015625Q782.5198974609375 250.58001708984375 776.8399658203125 271.9801025390625Q771.1600341796875 293.38018798828125 771.1600341796875 326.02032470703125Q771.1600341796875 361.02032470703125 772.2400512695312 395.8704528808594Q773.320068359375 430.7205810546875 774.1100769042969 462.94073486328125Q774.9000854492188 495.160888671875 774.9000854492188 519.9009399414062Q774.9000854492188 589.3403930664062 743.0101623535156 622.3700256347656Q711.1202392578125 655.399658203125 652.3005981445312 655.399658203125Q624.48095703125 655.399658203125 601.1011962890625 645.2298889160156Q577.721435546875 635.0601196289062 561.3014526367188 620.2802734375V422.29974365234375H574.8814697265625Q620.04150390625 422.29974365234375 640.0715637207031 399.6096496582031Q660.1016235351562 376.9195556640625 660.1016235351562 337.9593505859375Q660.1016235351562 314.81964111328125 659.3116149902344 285.2197265625Q658.5216064453125 255.61981201171875 657.7315979003906 224.06985473632812Q656.9415893554688 192.5198974609375 656.1515808105469 163.5Q655.361572265625 134.4801025390625 655.361572265625 111.92041015625Q655.361572265625 81.86029052734375 668.361572265625 69.02032470703125Q681.361572265625 56.18035888671875 707.3014526367188 56.18035888671875V6.320068359375Z" fill="#fff6e6"/>
</svg>